<?xml version="1.0" encoding="utf-8"?>
<!-- Generator: Adobe Illustrator 16.0.0, SVG Export Plug-In . SVG Version: 6.00 Build 0)  -->
<!DOCTYPE svg PUBLIC "-//W3C//DTD SVG 1.1//EN" "http://www.w3.org/Graphics/SVG/1.1/DTD/svg11.dtd">
<svg version="1.1" id="Layer_1" xmlns="http://www.w3.org/2000/svg" xmlns:xlink="http://www.w3.org/1999/xlink" x="0px" y="0px"
	 width="50px" height="50px" viewBox="0 0 50 50" enable-background="new 0 0 50 50" xml:space="preserve">
<path fill="#898989" d="M50.083,42.82c0,3.867-3.136,7.005-7.004,7.005H7.255c-3.868,0-7.004-3.138-7.004-7.005V7.41
	c0-3.869,3.136-7.004,7.004-7.004h35.824c3.868,0,7.004,3.136,7.004,7.004V42.82z"/>
<g>
	<g>
		<path fill="#FFFFFF" d="M27.01,49.825h8.817V28.309h6.524v-7.053h-6.524V16.73c0-1.882,0.353-3.126,1.062-3.732
			c0.702-0.608,1.76-0.912,3.172-0.912c0.551,0,1.037,0.05,1.469,0.147c0.43,0.098,0.904,0.245,1.412,0.44l0.41-7.465
			c-0.822-0.196-1.664-0.333-2.526-0.411c-0.86-0.079-1.745-0.118-2.646-0.118c-2.393,0-4.318,0.303-5.787,0.912
			c-1.476,0.608-2.6,1.44-3.383,2.498c-0.783,1.057-1.314,2.284-1.589,3.674c-0.271,1.392-0.411,2.87-0.411,4.439v5.054h-5.817
			v7.053h5.817V49.825z"/>
	</g>
</g>
</svg>
