<?xml version="1.0" encoding="utf-8"?>
<!-- Generator: Adobe Illustrator 16.0.0, SVG Export Plug-In . SVG Version: 6.00 Build 0)  -->
<!DOCTYPE svg PUBLIC "-//W3C//DTD SVG 1.1//EN" "http://www.w3.org/Graphics/SVG/1.1/DTD/svg11.dtd">
<svg version="1.1" id="Layer_1" xmlns="http://www.w3.org/2000/svg" xmlns:xlink="http://www.w3.org/1999/xlink" x="0px" y="0px"
	 width="50px" height="50px" viewBox="0 0 50 50" enable-background="new 0 0 50 50" xml:space="preserve">
<path fill="#898989" d="M49.907,42.855c0,3.867-3.134,7.004-7.001,7.004H7.094c-3.867,0-7.002-3.137-7.002-7.004V7.457
	c0-3.867,3.135-7.002,7.002-7.002h35.812c3.867,0,7.001,3.135,7.001,7.002V42.855z"/>
<path fill="#FFFFFF" d="M25.015,6.018c2.249-0.058,4.499,0.014,6.742,0.065c2.042,0.047,4.072,0.216,5.988,1.031
	c3.291,1.403,5.192,3.93,5.967,7.371c0.283,1.26,0.354,2.544,0.396,3.826c0.109,3.559,0.119,7.121,0.062,10.681
	c-0.03,1.979-0.03,3.959-0.278,5.936c-0.605,4.792-3.838,8.223-8.594,9.075c-1.173,0.21-2.357,0.278-3.541,0.312
	c-3.49,0.108-6.983,0.115-10.472,0.062c-2.006-0.029-4.016-0.025-6.018-0.279c-4.794-0.605-8.227-3.841-9.076-8.596
	c-0.21-1.172-0.278-2.355-0.315-3.539c-0.106-3.49-0.112-6.982-0.061-10.473c0.03-2.006,0.029-4.016,0.282-6.018
	C6.7,10.681,9.932,7.25,14.69,6.397c1.171-0.209,2.356-0.287,3.539-0.312C20.491,6.038,22.753,5.959,25.015,6.018z M9.408,29.555
	c0.009,1.926,0.021,3.311,0.193,4.685c0.197,1.562,0.672,3.013,1.774,4.208c1.433,1.562,3.301,2.061,5.308,2.227
	c2.088,0.174,4.186,0.111,6.278,0.154c2.331,0.049,4.662-0.02,6.993-0.042c1.354-0.015,2.709-0.022,4.058-0.192
	c1.562-0.195,3.014-0.664,4.213-1.762c1.577-1.441,2.074-3.32,2.244-5.342c0.17-2.02,0.114-4.047,0.153-6.07
	c0.046-2.413-0.021-4.83-0.041-7.246c-0.013-1.339-0.026-2.681-0.196-4.012c-0.193-1.552-0.664-2.987-1.746-4.179
	c-1.445-1.596-3.34-2.095-5.377-2.262c-1.99-0.162-3.99-0.11-5.984-0.15c-2.442-0.048-4.887,0.02-7.332,0.042
	c-1.325,0.013-2.652,0.027-3.968,0.19c-1.568,0.195-3.017,0.667-4.218,1.762c-1.563,1.429-2.075,3.294-2.238,5.301
	c-0.178,2.146-0.098,4.297-0.163,6.446C9.293,25.574,9.372,27.838,9.408,29.555z"/>
<path fill="none" d="M25.01,35.088c5.555-0.094,9.856-4.408,9.855-9.884c-0.002-5.562-4.391-9.888-9.888-9.878
	c-5.482,0.008-9.85,4.322-9.855,9.868C15.115,30.693,19.446,35.014,25.01,35.088z"/>
<path fill="none" d="M35.188,17.344c1.295,0.009,2.377-1.074,2.367-2.373c-0.006-1.255-1.062-2.318-2.324-2.336
	c-1.274-0.019-2.364,1.038-2.383,2.313C32.827,16.256,33.882,17.334,35.188,17.344z"/>
<path fill="#FFFFFF" d="M25.01,35.088c-5.564-0.074-9.895-4.395-9.888-9.894c0.005-5.546,4.373-9.86,9.855-9.868
	c5.5-0.01,9.886,4.315,9.888,9.878C34.866,30.68,30.562,34.994,25.01,35.088z M24.986,31.537c3.516-0.083,6.321-2.752,6.327-6.332
	c0.004-3.536-2.748-6.319-6.312-6.324c-3.535-0.006-6.317,2.746-6.326,6.311C18.667,28.711,21.418,31.443,24.986,31.537z"/>
<path fill="#FFFFFF" d="M35.188,17.344c-1.307-0.01-2.36-1.088-2.34-2.396c0.019-1.275,1.107-2.332,2.383-2.313
	c1.262,0.018,2.318,1.081,2.324,2.336C37.564,16.27,36.482,17.354,35.188,17.344z"/>
<path fill="none" d="M24.986,31.537c-3.568-0.094-6.32-2.826-6.312-6.345c0.009-3.565,2.792-6.317,6.326-6.311
	c3.564,0.005,6.316,2.789,6.312,6.324C31.307,28.785,28.502,31.454,24.986,31.537z"/>
</svg>
