<?xml version="1.0" encoding="utf-8"?>
<!-- Generator: Adobe Illustrator 16.0.0, SVG Export Plug-In . SVG Version: 6.00 Build 0)  -->
<!DOCTYPE svg PUBLIC "-//W3C//DTD SVG 1.1//EN" "http://www.w3.org/Graphics/SVG/1.1/DTD/svg11.dtd">
<svg version="1.1" id="Layer_1" xmlns="http://www.w3.org/2000/svg" xmlns:xlink="http://www.w3.org/1999/xlink" x="0px" y="0px"
	 width="44.5px" height="66.58px" viewBox="285.5 194.75 44.5 66.58" enable-background="new 285.5 194.75 44.5 66.58"
	 xml:space="preserve">
<g>
	<path fill="none" stroke="#000000" stroke-linecap="round" stroke-linejoin="round" stroke-miterlimit="10" d="M308.287,252.797
		c0.094-0.011,0.203-0.027,0.316-0.051h0.012c0.035-0.004,0.076-0.02,0.117-0.025c0.383-0.095,1.008-0.324,1.852-0.827
		c0.062-0.044,0.129-0.079,0.197-0.132c14.667-9.608,13.783-13.613,13.783-13.613c0.266-3.815-4.312-4.913-4.312-4.913
		c-0.664-0.933,2.222-2.735,2.222-2.735c4.369-2.431,4.291-5.29,4.291-5.29c-0.242-3.833-3.529-5.165-3.529-5.165
		c-2.13-1.561-0.529-2.699-0.529-2.699c2.627-2.664,2.383-4.64,2.383-4.64c-0.32-3.487-5.167-3.714-5.167-3.714
		c-2.988-0.72-1.457-2.253-1.457-2.253c1.727-1.326,0.791-3.442,0.791-3.442c-0.791-2.387-4.5-1.244-4.5-1.244
		c-2.123,0.13-2.521-0.928-2.521-0.928c-1.033-2.652-3.686-3.477-4.346-3.518v-0.014c0,0-0.035,0-0.084,0s-0.08,0-0.08,0v0.014
		c-0.666,0.041-3.307,0.865-4.35,3.518c0,0-0.398,1.058-2.518,0.928c0,0-3.707-1.143-4.508,1.244c0,0-0.924,2.116,0.801,3.442
		c0,0,1.51,1.493-1.459,2.253c0,0-4.941,0.248-5.174,3.714c0,0-0.012,2.358,2.385,4.64c0,0,1.676,1.163-0.521,2.699
		c0,0-3.504,1.492-3.504,5.165c0,0-0.408,2.984,4.594,5.477c0,0,2.68,1.616,2.016,2.549c0,0-4.793,1.312-4.434,4.913
		c0,0-0.873,3.873,13.262,13.277c0.023,0.018,0.064,0.046,0.094,0.062l0,0c0.984,0.676,1.744,0.988,2.213,1.138
		c0.178,0.048,0.352,0.095,0.531,0.128"/>
	<path fill="none" stroke="#000000" stroke-linecap="round" stroke-linejoin="round" stroke-miterlimit="10" d="M308.615,252.746
		c0.039-0.004,0.072-0.014,0.117-0.025C308.691,252.727,308.65,252.742,308.615,252.746z"/>
	<path fill="none" stroke="#000000" stroke-linecap="round" stroke-linejoin="round" stroke-miterlimit="10" d="M308.287,252.797
		c0,0,0.115-0.007,0.316-0.051C308.49,252.77,308.38,252.786,308.287,252.797z"/>
	<path fill="none" stroke="#000000" stroke-linecap="round" stroke-linejoin="round" stroke-miterlimit="10" d="M307.152,252.754
		c-0.18-0.033-0.354-0.08-0.531-0.128C306.957,252.727,307.152,252.754,307.152,252.754z"/>
	<path fill="none" stroke="#000000" stroke-linecap="round" stroke-linejoin="round" stroke-miterlimit="10" d="M308.603,252.746
		h0.012H308.603z"/>
</g>
<line fill="none" stroke="#000000" stroke-linecap="round" stroke-linejoin="round" stroke-miterlimit="10" x1="307.619" y1="261.33" x2="307.619" y2="222.62"/>
</svg>
