<?xml version="1.0" encoding="utf-8"?>
<!-- Generator: Adobe Illustrator 16.0.0, SVG Export Plug-In . SVG Version: 6.00 Build 0)  -->
<!DOCTYPE svg PUBLIC "-//W3C//DTD SVG 1.1//EN" "http://www.w3.org/Graphics/SVG/1.1/DTD/svg11.dtd">
<svg version="1.1" id="Layer_1" xmlns="http://www.w3.org/2000/svg" xmlns:xlink="http://www.w3.org/1999/xlink" x="0px" y="0px"
	 width="50px" height="50px" viewBox="0 0 50 50" enable-background="new 0 0 50 50" xml:space="preserve">
<path fill="#898989" d="M49.798,42.621c0,3.85-3.121,6.972-6.971,6.972H7.173c-3.85,0-6.971-3.122-6.971-6.972V7.379
	c0-3.851,3.121-6.971,6.971-6.971h35.654c3.85,0,6.971,3.121,6.971,6.971V42.621z"/>
<path fill="#FFFFFF" d="M45.211,8.992c-0.484,0.278-0.979,0.538-1.486,0.769c-1.151,0.523-2.345,0.913-3.58,1.173
	c-0.119,0.025-0.196-0.005-0.274-0.089c-0.21-0.225-0.438-0.428-0.677-0.62C37.29,8.69,35.12,8.067,32.704,8.383
	c-2.146,0.279-3.92,1.282-5.321,2.933c-1.314,1.552-1.951,3.362-1.984,5.386c-0.008,0.59,0.058,1.179,0.183,1.759
	c0.039,0.175,0.018,0.196-0.155,0.18c-0.447-0.044-0.892-0.07-1.339-0.122c-1.547-0.178-3.064-0.5-4.549-0.976
	c-2.274-0.729-4.388-1.778-6.351-3.134c-1.177-0.814-2.271-1.732-3.283-2.742c-0.52-0.517-1.021-1.053-1.479-1.625
	c-0.159-0.198-0.166-0.195-0.29,0.02c-0.037,0.066-0.076,0.133-0.11,0.201c-0.661,1.335-0.974,2.743-0.898,4.236
	c0.056,1.126,0.32,2.194,0.802,3.21c0.628,1.323,1.552,2.402,2.735,3.259c0.034,0.024,0.095,0.033,0.087,0.102
	c-0.24,0.028-0.473-0.01-0.705-0.041c-0.996-0.136-1.942-0.432-2.833-0.898c-0.156-0.082-0.18-0.069-0.174,0.106
	c0.019,0.481,0.054,0.96,0.143,1.434c0.377,1.978,1.332,3.621,2.861,4.925c0.934,0.797,1.997,1.355,3.182,1.678
	c0.164,0.045,0.327,0.086,0.512,0.138c-0.043,0.021-0.062,0.034-0.081,0.038c-0.544,0.134-1.094,0.223-1.652,0.242
	c-0.614,0.023-1.227,0.002-1.831-0.108c-0.135-0.024-0.158,0.021-0.118,0.138c0.085,0.243,0.178,0.483,0.283,0.719
	c0.601,1.33,1.485,2.434,2.654,3.306c1.299,0.965,2.761,1.521,4.382,1.64c0.139,0.014,0.281,0.029,0.422,0.045
	c-3.654,2.799-7.768,3.936-12.365,3.48c0.057,0.046,0.078,0.066,0.104,0.085c0.597,0.377,1.21,0.728,1.837,1.049
	c1.155,0.597,2.353,1.088,3.588,1.491c2.313,0.755,4.689,1.119,7.115,1.163c0.624,0.01,1.247-0.024,1.87-0.058
	c0.633-0.035,1.264-0.095,1.893-0.182c1.654-0.223,3.269-0.604,4.843-1.164c1.592-0.568,3.106-1.302,4.531-2.212
	c1.895-1.211,3.576-2.666,5.045-4.369c0.946-1.098,1.792-2.265,2.53-3.511c0.996-1.682,1.788-3.456,2.377-5.322
	c0.756-2.393,1.133-4.841,1.135-7.349c0-0.245-0.013-0.492-0.028-0.738c-0.008-0.13,0.043-0.209,0.148-0.283
	c0.543-0.39,1.053-0.821,1.54-1.279c0.896-0.842,1.688-1.771,2.39-2.786c0.026-0.041,0.078-0.076,0.055-0.159
	c-0.742,0.318-1.497,0.595-2.271,0.805c-0.779,0.209-1.562,0.382-2.373,0.447c1.715-1.116,2.904-2.627,3.565-4.559
	C45.264,8.951,45.238,8.977,45.211,8.992z"/>
</svg>
