<?xml version="1.0" encoding="utf-8"?>
<!-- Generator: Adobe Illustrator 16.0.0, SVG Export Plug-In . SVG Version: 6.00 Build 0)  -->
<!DOCTYPE svg PUBLIC "-//W3C//DTD SVG 1.1//EN" "http://www.w3.org/Graphics/SVG/1.1/DTD/svg11.dtd">
<svg version="1.1" id="Layer_1" xmlns="http://www.w3.org/2000/svg" xmlns:xlink="http://www.w3.org/1999/xlink" x="0px" y="0px"
	 width="44.5px" height="66.08px" viewBox="285.5 195.25 44.5 66.08" enable-background="new 285.5 195.25 44.5 66.08"
	 xml:space="preserve">
<g>
	<path fill="none" stroke="#000000" stroke-linecap="round" stroke-linejoin="round" stroke-miterlimit="10" d="M308.389,252.95
		h0.347c2.746-1,11.326-4.575,13.774-10.912c0,0-0.268-0.429-0.898-0.376c0,0,5.367-5.354,4.519-10.499l-1.014,0.221
		c0,0,3.09-5.576,1.491-10.936l-1.325,0.162c0,0,0.952-3.356,0.102-6.333l-1.539,0.489c0,0-0.639-3.195-1.967-4.55l-1.971,0.327
		l-2.023-3.731l-1.436,0.538l-1.918-2.594l-1.277,0.27l-1.325-2.655l-0.427,0.489c0,0-2.695-3.711-3.346-5.718"/>
	<path fill="none" stroke="#000000" stroke-linecap="round" stroke-linejoin="round" stroke-miterlimit="10" d="M307.333,252.95
		h-0.057c-2.68-1.009-11.043-4.582-13.49-10.912c0,0,0.268-0.429,0.908-0.376c0,0-5.379-5.354-4.523-10.499l1.01,0.221
		c0,0-3.084-5.576-1.49-10.936l1.328,0.162c0,0-0.955-3.356-0.102-6.333l1.539,0.489c0,0,0.639-3.195,1.967-4.55l1.971,0.327
		l2.023-3.731l1.433,0.538l1.919-2.594l1.279,0.27l1.325-2.655l0.427,0.489c0,0,2.692-3.711,3.344-5.718v-0.02l0.005,0.007"/>
	
		<line fill="none" stroke="#000000" stroke-linecap="round" stroke-linejoin="round" stroke-miterlimit="10" x1="307.783" y1="261.33" x2="307.783" y2="222.62"/>
</g>
</svg>
